<svg width="14" height="14" viewBox="0 0 14 14" fill="none" xmlns="http://www.w3.org/2000/svg">
<path d="M11.7924 5.87486C11.8092 3.90103 10.1281 2.09156 8.04494 1.84134C8.00352 1.83642 7.95837 1.82895 7.91061 1.82102C7.80746 1.80393 7.70082 1.78638 7.59323 1.78638C7.16628 1.78638 7.05215 2.08628 7.0221 2.26517C6.99287 2.43907 7.02076 2.58511 7.10479 2.69944C7.24618 2.89169 7.49495 2.92582 7.69478 2.95319C7.75335 2.96128 7.80861 2.9688 7.85488 2.97919C9.72653 3.39741 10.3567 4.05492 10.6647 5.91065C10.6723 5.95599 10.6757 6.01188 10.6793 6.07113C10.6927 6.29297 10.7207 6.75448 11.2169 6.75448H11.2169C11.2582 6.75448 11.3026 6.75093 11.3488 6.74387C11.8109 6.67365 11.7964 6.25179 11.7894 6.0491C11.7875 5.992 11.7856 5.938 11.7905 5.9021C11.7917 5.89304 11.7924 5.88394 11.7924 5.87486Z" fill="#7F40BD"/>
<path d="M7.47208 1.11688C7.5275 1.12087 7.58 1.1247 7.6237 1.1314C10.6971 1.60406 12.1106 3.06022 12.5023 6.15769C12.5089 6.21035 12.5099 6.27456 12.511 6.34256C12.5149 6.58455 12.523 7.08801 13.0636 7.09842L13.0804 7.09859C13.25 7.09859 13.3849 7.04745 13.4813 6.9465C13.6496 6.77046 13.6379 6.50895 13.6284 6.29876C13.6261 6.24719 13.6239 6.19862 13.6245 6.15611C13.6635 2.9882 10.9214 0.115554 7.75632 0.00874998C7.74319 0.00831248 7.73067 0.00902342 7.71801 0.0108008C7.7118 0.0117031 7.70026 0.0128515 7.68052 0.0128515C7.64896 0.0128515 7.61014 0.0101172 7.56896 0.00732811C7.51916 0.00391015 7.46273 0 7.40552 0C6.90147 0 6.80566 0.358257 6.79341 0.571811C6.76513 1.06539 7.24261 1.10012 7.47208 1.11688Z" fill="#7F40BD"/>
<path d="M12.3539 10.161C12.2886 10.1111 12.221 10.0595 12.1578 10.0085C11.8222 9.73844 11.4652 9.48953 11.1199 9.2488C11.0483 9.1989 10.9766 9.14894 10.9052 9.09885C10.463 8.7882 10.0654 8.63723 9.68974 8.63723C9.18377 8.63723 8.74266 8.91679 8.37858 9.46804C8.21728 9.71244 8.02158 9.83125 7.78041 9.83125C7.63781 9.83125 7.47575 9.79056 7.29883 9.71025C5.8713 9.06292 4.85195 8.0704 4.26907 6.76025C3.98729 6.12703 4.07865 5.71312 4.57455 5.37625C4.85617 5.18512 5.38034 4.82929 5.34321 4.14792C5.30116 3.37414 3.59387 1.04591 2.87451 0.781497C2.56996 0.669497 2.24996 0.668458 1.92169 0.778899C1.09471 1.0569 0.501272 1.54512 0.205359 2.19068C-0.0806018 2.81447 -0.0676956 3.5469 0.24271 4.30881C1.14002 6.51167 2.40158 8.43229 3.99249 10.0172C5.54971 11.5687 7.46366 12.8395 9.68112 13.7944C9.88101 13.8804 10.0907 13.9273 10.2437 13.9615C10.2959 13.9732 10.3409 13.9832 10.3738 13.9922C10.3918 13.9971 10.4104 13.9998 10.4291 14L10.4466 14C10.4467 14 10.4466 14 10.4467 14C11.4896 14 12.742 13.047 13.1266 11.9605C13.4635 11.0091 12.8483 10.5388 12.3539 10.161Z" fill="#7F40BD"/>
<path d="M7.93341 3.63331C7.75486 3.63783 7.38323 3.64704 7.25285 4.02553C7.19185 4.20239 7.19915 4.35595 7.27459 4.48195C7.38528 4.66682 7.59738 4.72348 7.79029 4.75457C8.48991 4.86684 8.8492 5.2537 8.92106 5.97197C8.95445 6.30687 9.17998 6.54074 9.46955 6.54074H9.46961C9.49099 6.54074 9.51286 6.53948 9.53466 6.53683C9.88291 6.49541 10.0518 6.23952 10.0365 5.7764C10.0421 5.29305 9.78912 4.74432 9.35889 4.30723C8.92713 3.8688 8.40676 3.62188 7.93341 3.63331Z" fill="#7F40BD"/>
</svg>
