<svg width="14" height="14" viewBox="0 0 14 14" fill="none" xmlns="http://www.w3.org/2000/svg">
<path d="M10.2474 8.18346C10.2208 8.16978 9.23015 7.6663 9.0522 7.60336C8.98048 7.576 8.90346 7.55137 8.82112 7.55137C8.68832 7.55137 8.57411 7.61978 8.48647 7.75386C8.38819 7.90436 8.08806 8.26555 7.9951 8.37501C7.98182 8.38869 7.96589 8.4051 7.95792 8.4051C7.94995 8.4051 7.7959 8.33943 7.74809 8.32028C6.68569 7.84416 5.87826 6.70038 5.76671 6.5061C5.75077 6.47874 5.75077 6.46506 5.75077 6.46506C5.75343 6.45137 5.79061 6.41307 5.8092 6.39391C5.86232 6.33919 5.92076 6.26531 5.97919 6.1969C6.00575 6.16406 6.03231 6.13123 6.05887 6.09839C6.1412 5.99988 6.17839 5.92327 6.22089 5.8357L6.24213 5.78919C6.34572 5.57849 6.25807 5.39789 6.22885 5.34043C6.20495 5.29118 5.78796 4.25138 5.7428 4.14192C5.63656 3.87924 5.49314 3.7561 5.29659 3.7561C5.278 3.7561 5.29659 3.7561 5.21957 3.75884C5.12661 3.76158 4.61931 3.83272 4.3962 3.97775C4.15716 4.13098 3.7561 4.62352 3.7561 5.49093C3.7561 6.27078 4.23684 7.00685 4.44136 7.28595C4.44667 7.29416 4.45464 7.30784 4.47057 7.327C5.25941 8.51456 6.24213 9.39291 7.2408 9.80336C8.19962 10.1974 8.65645 10.2439 8.91408 10.2439C9.02298 10.2439 9.11063 10.2357 9.185 10.2275L9.23281 10.222C9.56481 10.1919 10.2926 9.80336 10.4599 9.32724C10.59 8.95237 10.6246 8.54466 10.5369 8.3969C10.4785 8.29839 10.3749 8.2464 10.2474 8.18346Z" fill="#29C44D"/>
<path d="M7.12095 0C3.33146 0 0.247374 3.0625 0.247374 6.825C0.247374 8.0418 0.572734 9.23398 1.19065 10.2758L0.00950574 13.7594C-0.0123672 13.825 0.0040375 13.8961 0.0532517 13.9453C0.0887952 13.9809 0.135275 14 0.181755 14C0.200894 14 0.220033 13.9973 0.236438 13.9918L3.87008 12.8379C4.8653 13.3684 5.98629 13.65 7.12369 13.65C10.9159 13.65 14 10.5875 14 6.825C13.9973 3.0625 10.9132 0 7.12095 0ZM7.12095 12.2281C6.05191 12.2281 5.01568 11.9191 4.12436 11.334C4.09428 11.3148 4.05874 11.3039 4.02593 11.3039C4.00679 11.3039 3.98765 11.3066 3.97125 11.3121L2.15032 11.8918L2.73816 10.1582C2.7573 10.1008 2.74636 10.0406 2.71355 9.99141C2.03549 9.06445 1.67732 7.9707 1.67732 6.825C1.67732 3.84453 4.12162 1.42188 7.12369 1.42188C10.1258 1.42188 12.5701 3.84453 12.5701 6.825C12.5673 9.80273 10.1258 12.2281 7.12095 12.2281Z" fill="#29C44D"/>
</svg>
